<?xml version="1.0" standalone="no"?>
<!DOCTYPE svg PUBLIC "-//W3C//DTD SVG 20010904//EN"
 "http://www.w3.org/TR/2001/REC-SVG-20010904/DTD/svg10.dtd">
<svg version="1.0" xmlns="http://www.w3.org/2000/svg"
 width="114.000000pt" height="114.000000pt" viewBox="0 0 114.000000 114.000000"
 preserveAspectRatio="xMidYMid meet">
<metadata>
Created by potrace 1.14, written by Peter Selinger 2001-2017
</metadata>
<g transform="translate(0.000000,114.000000) scale(0.100000,-0.100000)"
fill="#000000" stroke="none">
<path d="M220 992 c0 -22 7 -30 30 -39 l30 -11 0 -370 0 -370 -30 -11 c-23 -7
-30 -16 -30 -35 l0 -26 335 0 335 0 2 90 c4 184 5 175 -20 178 -19 3 -27 -7
-57 -70 -18 -40 -43 -86 -55 -101 -21 -26 -24 -27 -126 -27 l-104 0 0 370 0
369 30 16 c21 11 30 23 30 40 l0 25 -185 0 -185 0 0 -28z"/>
</g>
</svg>
